<?xml version="1.0" encoding="utf-8"?>
<!-- Generator: Adobe Illustrator 25.1.0, SVG Export Plug-In . SVG Version: 6.00 Build 0)  -->
<svg version="1.1" id="Layer_1" xmlns="http://www.w3.org/2000/svg" xmlns:xlink="http://www.w3.org/1999/xlink" x="0px" y="0px"
	 viewBox="0 0 247.1 42.2" style="enable-background:new 0 0 247.1 42.2;" xml:space="preserve">
<style type="text/css">
	.st0{fill:#231F20;}
	.st1{fill:#FFFFFF;}
</style>
<g id="Layer_2_1_">
	<g id="Layer_1-2">
		<g>
			<g>
				<path class="st0" d="M49.5,34.1c-1.6-0.5-3.2-1.3-4.5-2.4l1.4-2.9c1.2,1,2.5,1.7,4,2.2c1.6,0.6,3.3,0.8,5,0.8
					c1.7,0.1,3.5-0.3,5-1.1c1-0.6,1.7-1.7,1.7-2.9c0-0.8-0.3-1.6-0.9-2.2c-0.7-0.6-1.4-1-2.3-1.3c-0.9-0.3-2.2-0.6-3.8-1
					c-1.7-0.4-3.3-0.8-4.9-1.4c-1.2-0.5-2.3-1.2-3.2-2.2c-0.9-1.1-1.4-2.5-1.3-3.9c0-1.3,0.4-2.6,1.1-3.7c0.9-1.2,2.1-2.1,3.5-2.7
					c1.8-0.7,3.8-1.1,5.8-1c1.6,0,3.2,0.2,4.7,0.6c1.4,0.3,2.8,0.9,4,1.7l-1.3,3c-1.1-0.7-2.4-1.2-3.7-1.6c-1.2-0.4-2.5-0.5-3.8-0.5
					c-1.7-0.1-3.5,0.3-5,1.1c-1,0.6-1.7,1.8-1.7,3c0,0.8,0.3,1.6,0.9,2.2c0.7,0.6,1.5,1,2.3,1.3c1.2,0.4,2.5,0.7,3.7,1
					c1.7,0.4,3.3,0.8,4.9,1.4c1.2,0.5,2.3,1.2,3.2,2.1c0.9,1,1.4,2.4,1.4,3.8c0,1.3-0.4,2.6-1.2,3.7c-0.9,1.2-2.1,2.1-3.5,2.6
					c-1.9,0.7-3.8,1.1-5.8,1C53.5,35,51.5,34.7,49.5,34.1z"/>
				<path class="st0" d="M90.3,15.1v19.6h-3.5v-3c-0.8,1-1.8,1.8-3,2.4c-1.3,0.6-2.6,0.8-4,0.8c-2.4,0.1-4.7-0.6-6.5-2.2
					c-1.6-1.4-2.4-3.6-2.4-6.4V15.1h3.7V26c-0.1,1.6,0.4,3.1,1.4,4.3c1.1,1,2.6,1.6,4.1,1.5c1.7,0.1,3.4-0.5,4.7-1.7
					c1.2-1.3,1.8-3,1.7-4.8V15.1H90.3z"/>
				<path class="st0" d="M114.6,17.1c1.5,1.4,2.3,3.6,2.3,6.4v11.3h-3.7V23.8c0.1-1.6-0.4-3.1-1.4-4.3c-1.1-1-2.6-1.6-4.1-1.4
					c-1.8-0.1-3.5,0.5-4.8,1.7c-1.2,1.3-1.9,3.1-1.8,4.8v10.1h-3.7V7.2h3.7v10.6c0.8-1,1.9-1.7,3.1-2.2c1.3-0.5,2.8-0.8,4.2-0.8
					C110.7,14.8,112.9,15.5,114.6,17.1z"/>
				<path class="st0" d="M142.5,26.1h-16.7c0.2,1.7,1.1,3.2,2.4,4.2c1.5,1.1,3.2,1.6,5.1,1.6c2.2,0.1,4.4-0.8,5.9-2.4l2.1,2.3
					c-1,1.1-2.1,1.9-3.5,2.4c-1.5,0.6-3.1,0.8-4.6,0.8c-2,0-4-0.4-5.8-1.3c-1.6-0.8-3-2-3.9-3.6c-0.9-1.6-1.4-3.4-1.4-5.2
					c0-1.8,0.4-3.6,1.3-5.1c0.9-1.5,2.1-2.8,3.7-3.6c1.6-0.9,3.5-1.3,5.3-1.3c1.8,0,3.6,0.4,5.3,1.3c1.5,0.8,2.8,2.1,3.6,3.6
					c0.9,1.6,1.3,3.4,1.3,5.3C142.6,25.4,142.5,25.7,142.5,26.1z M127.9,19.4c-1.2,1-2,2.5-2.1,4.1H139c-0.2-1.6-0.9-3-2.1-4.1
					C134.2,17.4,130.5,17.4,127.9,19.4L127.9,19.4z"/>
				<path class="st0" d="M166.3,26.1h-16.7c0.2,1.7,1.1,3.2,2.4,4.2c1.4,1.1,3.2,1.6,5,1.6c2.3,0.1,4.4-0.8,6-2.4l2.1,2.3
					c-1,1.1-2.2,1.9-3.5,2.4c-3.4,1.2-7.2,1.1-10.4-0.5c-1.6-0.8-3-2-3.9-3.6c-0.9-1.6-1.4-3.4-1.4-5.2c0-1.8,0.4-3.6,1.3-5.1
					c0.9-1.5,2.2-2.8,3.7-3.6c1.6-0.9,3.5-1.3,5.3-1.3c1.8,0,3.6,0.4,5.3,1.3c1.5,0.8,2.7,2.1,3.5,3.6c0.9,1.6,1.3,3.4,1.3,5.3
					C166.3,25.4,166.3,25.7,166.3,26.1z M151.7,19.4c-1.2,1-2,2.5-2.1,4.1h13.2c-0.2-1.6-0.9-3-2.1-4.1
					C158,17.4,154.3,17.4,151.7,19.4L151.7,19.4z"/>
				<path class="st0" d="M182.5,8.8h3.9v22.7h14.7v3.2h-18.6V8.8z"/>
				<path class="st0" d="M223.3,26.1h-16.7c0.2,1.7,1.1,3.2,2.4,4.2c1.4,1.1,3.2,1.6,5,1.6c2.3,0.1,4.4-0.8,6-2.4l2.1,2.3
					c-1,1.1-2.2,1.9-3.5,2.4c-1.5,0.6-3.1,0.8-4.6,0.8c-2,0-4-0.4-5.8-1.3c-1.6-0.8-3-2-3.9-3.6c-0.9-1.6-1.4-3.4-1.4-5.2
					c0-1.8,0.4-3.6,1.3-5.1c0.9-1.5,2.1-2.8,3.7-3.6c1.6-0.9,3.5-1.3,5.3-1.3c1.8,0,3.6,0.4,5.3,1.3c1.5,0.8,2.8,2.1,3.6,3.6
					c0.9,1.6,1.3,3.4,1.3,5.3C223.4,25.4,223.3,25.7,223.3,26.1z M208.7,19.4c-1.2,1-2,2.5-2.1,4.1h13.2c-0.2-1.6-0.9-3-2.1-4.1
					C215,17.4,211.3,17.4,208.7,19.4L208.7,19.4z"/>
				<path class="st0" d="M247,26.1h-16.7c0.2,1.7,1.1,3.2,2.4,4.2c1.5,1.1,3.2,1.6,5.1,1.6c2.2,0.1,4.4-0.8,5.9-2.4l2.1,2.3
					c-1,1.1-2.1,1.9-3.5,2.4c-1.5,0.6-3.1,0.8-4.6,0.8c-2,0-4-0.4-5.8-1.3c-1.6-0.8-3-2-3.9-3.6c-0.9-1.6-1.4-3.4-1.4-5.2
					c0-1.8,0.5-3.6,1.4-5.1c0.9-1.5,2.1-2.8,3.7-3.6c1.6-0.9,3.5-1.3,5.3-1.3c1.8,0,3.6,0.4,5.3,1.3c1.5,0.8,2.8,2.1,3.6,3.6
					c0.9,1.6,1.3,3.4,1.3,5.3C247.1,25.4,247.1,25.7,247,26.1z M232.4,19.4c-1.2,1-2,2.5-2.1,4.1h13.2c-0.2-1.6-0.9-3-2.1-4.1
					C238.8,17.4,235,17.4,232.4,19.4L232.4,19.4z"/>
			</g>
			<g>
				<rect y="4" class="st0" width="34.2" height="34.2"/>
				<g>
					<path class="st1" d="M10.1,28.2l-2-8.9l-1.9,8.9H4.1l3.1-13.7h2l3.1,13.7H10.1z M16.1,28.3H14V21h-2.4v-2H14v-4.6h2L16.1,28.3z
						"/>
					<path class="st1" d="M28.1,26.3V14.4h2.1v13.9H18.1v-2L28.1,26.3z M21.2,15.1v-1.1h2v1.1h2.9v1.8h-7.8v-1.8H21.2z M25.7,21.8
						c0,0.4-0.1,0.8-0.3,1.1c-0.2,0.3-0.5,0.6-0.8,0.9c-0.3,0.3-0.7,0.5-1.1,0.6c-0.9,0.3-1.9,0.3-2.8,0c-0.4-0.1-0.8-0.3-1.1-0.6
						c-0.3-0.2-0.6-0.5-0.8-0.9c-0.2-0.3-0.3-0.7-0.3-1.1v-1.3c0-0.4,0.1-0.8,0.3-1.1c0.2-0.3,0.5-0.6,0.8-0.9
						c0.3-0.3,0.7-0.5,1.1-0.6c0.9-0.3,1.9-0.3,2.8,0c0.4,0.1,0.8,0.3,1.1,0.6c0.3,0.2,0.6,0.5,0.8,0.9c0.2,0.3,0.3,0.7,0.3,1.1
						L25.7,21.8z M20.6,21.5c0,0.2,0,0.3,0.1,0.5c0.1,0.2,0.2,0.3,0.3,0.4c0.1,0.1,0.3,0.2,0.5,0.3c0.4,0.1,0.8,0.1,1.2,0
						c0.2-0.1,0.3-0.2,0.5-0.3c0.1-0.1,0.2-0.2,0.3-0.4c0.1-0.2,0.1-0.3,0.1-0.5v-0.8c0-0.2,0-0.4-0.1-0.5c-0.1-0.2-0.2-0.3-0.3-0.4
						c-0.1-0.1-0.3-0.2-0.5-0.3c-0.4-0.1-0.8-0.1-1.2,0c-0.2,0.1-0.4,0.2-0.5,0.3c-0.1,0.1-0.2,0.3-0.3,0.4
						c-0.1,0.2-0.1,0.3-0.1,0.5V21.5z"/>
				</g>
			</g>
		</g>
	</g>
</g>
</svg>
